<!DOCTYPE svg PUBLIC "-//W3C//DTD SVG 1.1//EN" "http://www.w3.org/Graphics/SVG/1.1/DTD/svg11.dtd">
<!-- Uploaded to: SVG Repo, www.svgrepo.com, Transformed by: SVG Repo Mixer Tools -->
<svg fill="#26adcf" height="64px" width="64px" version="1.2" baseProfile="tiny" id="Layer_1" xmlns="http://www.w3.org/2000/svg" xmlns:xlink="http://www.w3.org/1999/xlink" viewBox="0 0 260 244" xml:space="preserve" stroke="#26adcf">
<g id="SVGRepo_bgCarrier" stroke-width="0"/>
<g id="SVGRepo_tracerCarrier" stroke-linecap="round" stroke-linejoin="round"/>
<g id="SVGRepo_iconCarrier"> <path d="M163,165v60.4c0,9-8.6,17.6-17.6,17.6H92.6c-11,0-19.9-1.4-30.2-5c-3.2-1.1-12.6-5-12.6-5v-70.4l41.5-48.8l3.8-21.7h7.5 c8.4,0,14.2,6.7,14.2,15v4.7c0,10.7-0.6,21.5-1.9,32.1l-0.4,3.5h30.9C154.4,147.4,163,156,163,165z M2,240.5h37.7V155H2V240.5z M153.9,39.4h22.6l-0.3-2.6c-0.9-7.8-1.4-15.7-1.4-23.6V9.8c0-6.1,4.3-11,10.5-11h5.5l2.8,15.9L224,50.4v51.7c0,0-6.9,2.9-9.2,3.7 c-7.6,2.7-14.1,3.7-22.1,3.7h-38.7c-6.6,0-12.9-6.3-12.9-12.9V52.3C141,45.7,147.3,39.4,153.9,39.4z M259.1,44.9h-27.7v62.7h27.7 V44.9z"/> </g>
</svg>