<!DOCTYPE svg PUBLIC "-//W3C//DTD SVG 1.1//EN" "http://www.w3.org/Graphics/SVG/1.1/DTD/svg11.dtd">
<!-- Uploaded to: SVG Repo, www.svgrepo.com, Transformed by: SVG Repo Mixer Tools -->
<svg width="64px" height="64px" viewBox="0 0 36 36" xmlns="http://www.w3.org/2000/svg" xmlns:xlink="http://www.w3.org/1999/xlink" aria-hidden="true" role="img" class="iconify iconify--twemoji" preserveAspectRatio="xMidYMid meet" fill="#000000">
<g id="SVGRepo_bgCarrier" stroke-width="0"/>
<g id="SVGRepo_tracerCarrier" stroke-linecap="round" stroke-linejoin="round"/>
<g id="SVGRepo_iconCarrier">
<path fill="#024FA2" d="M32 5H4a4 4 0 0 0-4 4v18a4 4 0 0 0 4 4h28a4 4 0 0 0 4-4V9a4 4 0 0 0-4-4z"/>
<path fill="#EEE" d="M0 9h36v1H0zm0 17h36v1H0z"/>
<path fill="#ED1C27" d="M0 10h36v16H0z"/>
<path fill="#FFF" d="M13.278 23.778a5.778 5.778 0 1 0 0-11.556a5.778 5.778 0 0 0 0 11.556zm-1.257-7.508l1.257-3.868l1.257 3.868h4.067l-3.29 2.39l1.257 3.868l-3.29-2.39l-3.29 2.39l1.257-3.868l-3.29-2.39h4.065z"/>
</g>
</svg>