<!DOCTYPE svg PUBLIC "-//W3C//DTD SVG 1.1//EN" "http://www.w3.org/Graphics/SVG/1.1/DTD/svg11.dtd">
<!-- Uploaded to: SVG Repo, www.svgrepo.com, Transformed by: SVG Repo Mixer Tools -->
<svg width="64px" height="64px" viewBox="0 0 512 512" enable-background="new 0 0 512 512" id="Layer_1" version="1.1" xml:space="preserve" xmlns="http://www.w3.org/2000/svg" xmlns:xlink="http://www.w3.org/1999/xlink" fill="#000000">
<g id="SVGRepo_bgCarrier" stroke-width="0"/>
<g id="SVGRepo_tracerCarrier" stroke-linecap="round" stroke-linejoin="round"/>
<g id="SVGRepo_iconCarrier"> <g> <g> <path d="M378.245,434.74h-244.49c-5.523,0-10-4.477-10-10V87.26c0-5.523,4.477-10,10-10h194.35 c5.523,0,10,4.477,10,10s-4.477,10-10,10h-184.35v317.48h224.49V121.15c0-5.523,4.477-10,10-10s10,4.477,10,10v303.59 C388.245,430.263,383.768,434.74,378.245,434.74z" fill="#444B54"/> </g> <g> <path d="M255.997,337.692c-37.949,0-68.823-30.874-68.823-68.823s30.874-68.823,68.823-68.823 c37.95,0,68.824,30.874,68.824,68.823S293.947,337.692,255.997,337.692z M255.997,220.046c-26.921,0-48.823,21.902-48.823,48.823 s21.902,48.823,48.823,48.823c26.922,0,48.824-21.902,48.824-48.823S282.919,220.046,255.997,220.046z" fill="#444B54"/> </g> <g> <path d="M254.38,297.933c-2.378,0-4.76-0.844-6.663-2.544l-33.56-30c-4.118-3.681-4.472-10.003-0.791-14.12 c3.682-4.118,10.003-4.472,14.12-0.791l26.51,23.698l71.2-71.201c3.905-3.904,10.237-3.904,14.143,0 c3.905,3.905,3.905,10.237,0,14.143l-77.887,77.887C259.506,296.951,256.945,297.933,254.38,297.933z" fill="#444B54"/> </g> <g> <path d="M378.242,131.15h-50.137c-5.523,0-10-4.477-10-10V87.26c0-3.7,2.042-7.097,5.31-8.832 s7.226-1.525,10.291,0.547l50.137,33.891c3.641,2.461,5.249,7.011,3.961,11.213S382.637,131.15,378.242,131.15z M338.105,111.15 h7.487l-7.487-5.061V111.15z" fill="#444B54"/> </g> <g> <polyline fill="#65A0D6" points="378.245,121.15 378.245,424.74 133.755,424.74 133.755,87.26 328.105,87.26 "/> <path d="M378.245,434.74h-244.49c-5.523,0-10-4.477-10-10V87.26c0-5.523,4.477-10,10-10h194.35 c5.523,0,10,4.477,10,10s-4.477,10-10,10h-184.35v317.48h224.49V121.15c0-5.523,4.477-10,10-10s10,4.477,10,10v303.59 C388.245,430.263,383.768,434.74,378.245,434.74z" fill="#444B54"/> </g> <g> <circle cx="255.998" cy="268.869" fill="#D9DCE1" r="58.823"/> <path d="M255.997,337.692c-37.949,0-68.823-30.874-68.823-68.823s30.874-68.823,68.823-68.823 c37.95,0,68.824,30.874,68.824,68.823S293.947,337.692,255.997,337.692z M255.997,220.046c-26.921,0-48.823,21.902-48.823,48.823 s21.902,48.823,48.823,48.823c26.922,0,48.824-21.902,48.824-48.823S282.919,220.046,255.997,220.046z" fill="#444B54"/> </g> <g> <path d="M254.38,297.933c-2.378,0-4.76-0.844-6.663-2.544l-33.56-30c-4.118-3.681-4.472-10.003-0.791-14.12 c3.682-4.118,10.003-4.472,14.12-0.791l26.51,23.698l71.2-71.201c3.905-3.904,10.237-3.904,14.143,0 c3.905,3.905,3.905,10.237,0,14.143l-77.887,77.887C259.506,296.951,256.945,297.933,254.38,297.933z" fill="#444B54"/> </g> <g> <path d="M378.242,131.15h-50.137c-5.523,0-10-4.477-10-10V87.26c0-3.7,2.042-7.097,5.31-8.832 s7.226-1.525,10.291,0.547l50.137,33.891c3.641,2.461,5.249,7.011,3.961,11.213S382.637,131.15,378.242,131.15z M338.105,111.15 h7.487l-7.487-5.061V111.15z" fill="#444B54"/> </g> </g> </g>
</svg>